<mxfile host="65bd71144e">
    <diagram id="1nBPS_3JqJElBMOWStDa" name="Page-1">
        <mxGraphModel dx="1344" dy="808" grid="1" gridSize="10" guides="1" tooltips="1" connect="1" arrows="1" fold="1" page="1" pageScale="1" pageWidth="1654" pageHeight="2336" math="0" shadow="0">
            <root>
                <mxCell id="0"/>
                <mxCell id="1" parent="0"/>
                <mxCell id="2" value="&lt;font style=&quot;&quot;&gt;&lt;span style=&quot;font-size: 15px;&quot;&gt;Communication&lt;/span&gt;&lt;br&gt;&lt;font style=&quot;font-size: 12px;&quot;&gt;(Teensy 3.5)&lt;/font&gt;&lt;/font&gt;" style="rounded=1;whiteSpace=wrap;html=1;" vertex="1" parent="1">
                    <mxGeometry x="170" y="270" width="170" height="60" as="geometry"/>
                </mxCell>
                <mxCell id="3" value="&lt;font style=&quot;&quot;&gt;&lt;span style=&quot;font-size: 15px;&quot;&gt;Actuator&lt;/span&gt;&lt;br&gt;&lt;font style=&quot;font-size: 12px;&quot;&gt;(Teensy 3.5)&lt;/font&gt;&lt;/font&gt;" style="rounded=1;whiteSpace=wrap;html=1;" vertex="1" parent="1">
                    <mxGeometry x="359" y="270" width="271" height="60" as="geometry"/>
                </mxCell>
                <mxCell id="4" value="&lt;font style=&quot;&quot;&gt;&lt;span style=&quot;font-size: 15px;&quot;&gt;Sensor&lt;/span&gt;&lt;br&gt;&lt;font style=&quot;font-size: 12px;&quot;&gt;(Teensy 3.5)&lt;/font&gt;&lt;/font&gt;" style="rounded=1;whiteSpace=wrap;html=1;" vertex="1" parent="1">
                    <mxGeometry x="648" y="270" width="262" height="60" as="geometry"/>
                </mxCell>
                <mxCell id="5" value="&lt;font style=&quot;&quot;&gt;&lt;span style=&quot;font-size: 15px;&quot;&gt;HMI&lt;/span&gt;&lt;br&gt;&lt;font style=&quot;font-size: 12px;&quot;&gt;(Teensy 3.5)&lt;/font&gt;&lt;/font&gt;" style="rounded=1;whiteSpace=wrap;html=1;" vertex="1" parent="1">
                    <mxGeometry x="938" y="270" width="202" height="60" as="geometry"/>
                </mxCell>
                <mxCell id="6" value="" style="endArrow=none;html=1;fontSize=15;exitX=0.5;exitY=1;exitDx=0;exitDy=0;entryX=0.5;entryY=1;entryDx=0;entryDy=0;strokeWidth=4;" edge="1" parent="1" source="2" target="5">
                    <mxGeometry width="50" height="50" relative="1" as="geometry">
                        <mxPoint x="570" y="450" as="sourcePoint"/>
                        <mxPoint x="470" y="400" as="targetPoint"/>
                        <Array as="points">
                            <mxPoint x="255" y="400"/>
                            <mxPoint x="1040" y="400"/>
                        </Array>
                    </mxGeometry>
                </mxCell>
                <mxCell id="8" value="" style="endArrow=none;html=1;strokeWidth=4;fontSize=15;exitX=0.5;exitY=1;exitDx=0;exitDy=0;" edge="1" parent="1">
                    <mxGeometry width="50" height="50" relative="1" as="geometry">
                        <mxPoint x="782" y="330" as="sourcePoint"/>
                        <mxPoint x="782" y="400" as="targetPoint"/>
                    </mxGeometry>
                </mxCell>
                <mxCell id="9" value="&lt;font style=&quot;font-size: 17px;&quot;&gt;CAN Bus&lt;/font&gt;" style="text;html=1;align=center;verticalAlign=middle;resizable=0;points=[];autosize=1;strokeColor=none;fillColor=none;fontSize=15;" vertex="1" parent="1">
                    <mxGeometry x="596" y="409" width="90" height="30" as="geometry"/>
                </mxCell>
                <mxCell id="10" value="SD Card" style="whiteSpace=wrap;html=1;fontSize=12;rotation=90;" vertex="1" parent="1">
                    <mxGeometry x="130" y="150" width="145" height="30" as="geometry"/>
                </mxCell>
                <mxCell id="11" value="Terminal" style="whiteSpace=wrap;html=1;fontSize=12;rotation=90;" vertex="1" parent="1">
                    <mxGeometry x="185" y="150" width="145" height="30" as="geometry"/>
                </mxCell>
                <mxCell id="12" value="ESP32" style="whiteSpace=wrap;html=1;fontSize=12;rotation=90;" vertex="1" parent="1">
                    <mxGeometry x="235" y="150" width="145" height="30" as="geometry"/>
                </mxCell>
                <mxCell id="13" value="Air Fan" style="whiteSpace=wrap;html=1;fontSize=12;rotation=90;" vertex="1" parent="1">
                    <mxGeometry x="321" y="150" width="145" height="30" as="geometry"/>
                </mxCell>
                <mxCell id="14" value="LED Lamp" style="whiteSpace=wrap;html=1;fontSize=12;rotation=90;" vertex="1" parent="1">
                    <mxGeometry x="374" y="150" width="145" height="30" as="geometry"/>
                </mxCell>
                <mxCell id="15" value="Heater" style="whiteSpace=wrap;html=1;fontSize=12;rotation=90;" vertex="1" parent="1">
                    <mxGeometry x="424" y="150" width="145" height="30" as="geometry"/>
                </mxCell>
                <mxCell id="16" value="Water Pump" style="whiteSpace=wrap;html=1;fontSize=12;rotation=90;" vertex="1" parent="1">
                    <mxGeometry x="471" y="150" width="145" height="30" as="geometry"/>
                </mxCell>
                <mxCell id="17" value="Window" style="whiteSpace=wrap;html=1;fontSize=12;rotation=90;" vertex="1" parent="1">
                    <mxGeometry x="521" y="150" width="145" height="30" as="geometry"/>
                </mxCell>
                <mxCell id="18" value="Flow Meter" style="whiteSpace=wrap;html=1;fontSize=12;rotation=90;" vertex="1" parent="1">
                    <mxGeometry x="600" y="149" width="145" height="30" as="geometry"/>
                </mxCell>
                <mxCell id="19" value="Soil Moisture" style="whiteSpace=wrap;html=1;fontSize=12;rotation=90;" vertex="1" parent="1">
                    <mxGeometry x="653" y="149" width="145" height="30" as="geometry"/>
                </mxCell>
                <mxCell id="20" value="Temperature &amp;amp; Humidity" style="whiteSpace=wrap;html=1;fontSize=12;rotation=90;" vertex="1" parent="1">
                    <mxGeometry x="702.5" y="149.5" width="145" height="30" as="geometry"/>
                </mxCell>
                <mxCell id="21" value="Light Intensity" style="whiteSpace=wrap;html=1;fontSize=12;rotation=90;" vertex="1" parent="1">
                    <mxGeometry x="750.25" y="149.25" width="145" height="30" as="geometry"/>
                </mxCell>
                <mxCell id="22" value="Water Level" style="whiteSpace=wrap;html=1;fontSize=12;rotation=90;" vertex="1" parent="1">
                    <mxGeometry x="799" y="149" width="145" height="30" as="geometry"/>
                </mxCell>
                <mxCell id="23" value="Keypad" style="whiteSpace=wrap;html=1;fontSize=12;rotation=90;" vertex="1" parent="1">
                    <mxGeometry x="892" y="150" width="145" height="30" as="geometry"/>
                </mxCell>
                <mxCell id="24" value="Display" style="whiteSpace=wrap;html=1;fontSize=12;rotation=90;" vertex="1" parent="1">
                    <mxGeometry x="942" y="150" width="145" height="30" as="geometry"/>
                </mxCell>
                <mxCell id="25" value="RGB LED" style="whiteSpace=wrap;html=1;fontSize=12;rotation=90;" vertex="1" parent="1">
                    <mxGeometry x="989" y="150" width="145" height="30" as="geometry"/>
                </mxCell>
                <mxCell id="26" value="Buzzer" style="whiteSpace=wrap;html=1;fontSize=12;rotation=90;" vertex="1" parent="1">
                    <mxGeometry x="1039" y="150" width="145" height="30" as="geometry"/>
                </mxCell>
                <mxCell id="27" value="" style="endArrow=none;html=1;strokeWidth=4;fontSize=15;exitX=0.5;exitY=1;exitDx=0;exitDy=0;" edge="1" parent="1">
                    <mxGeometry width="50" height="50" relative="1" as="geometry">
                        <mxPoint x="492" y="330" as="sourcePoint"/>
                        <mxPoint x="492" y="400" as="targetPoint"/>
                    </mxGeometry>
                </mxCell>
                <mxCell id="29" value="" style="endArrow=none;html=1;strokeWidth=2;fontSize=12;entryX=1;entryY=0.5;entryDx=0;entryDy=0;" edge="1" parent="1">
                    <mxGeometry width="50" height="50" relative="1" as="geometry">
                        <mxPoint x="257" y="270" as="sourcePoint"/>
                        <mxPoint x="257" y="237" as="targetPoint"/>
                    </mxGeometry>
                </mxCell>
                <mxCell id="30" value="" style="endArrow=none;html=1;strokeWidth=2;fontSize=12;entryX=1;entryY=0.5;entryDx=0;entryDy=0;" edge="1" parent="1">
                    <mxGeometry width="50" height="50" relative="1" as="geometry">
                        <mxPoint x="307" y="270" as="sourcePoint"/>
                        <mxPoint x="307" y="237" as="targetPoint"/>
                    </mxGeometry>
                </mxCell>
                <mxCell id="31" value="" style="endArrow=none;html=1;strokeWidth=2;fontSize=12;entryX=1;entryY=0.5;entryDx=0;entryDy=0;" edge="1" parent="1">
                    <mxGeometry width="50" height="50" relative="1" as="geometry">
                        <mxPoint x="393" y="270" as="sourcePoint"/>
                        <mxPoint x="393" y="237" as="targetPoint"/>
                    </mxGeometry>
                </mxCell>
                <mxCell id="32" value="" style="endArrow=none;html=1;strokeWidth=2;fontSize=12;entryX=1;entryY=0.5;entryDx=0;entryDy=0;" edge="1" parent="1">
                    <mxGeometry width="50" height="50" relative="1" as="geometry">
                        <mxPoint x="446" y="270" as="sourcePoint"/>
                        <mxPoint x="446" y="237" as="targetPoint"/>
                    </mxGeometry>
                </mxCell>
                <mxCell id="33" value="" style="endArrow=none;html=1;strokeWidth=2;fontSize=12;entryX=1;entryY=0.5;entryDx=0;entryDy=0;" edge="1" parent="1">
                    <mxGeometry width="50" height="50" relative="1" as="geometry">
                        <mxPoint x="496" y="270" as="sourcePoint"/>
                        <mxPoint x="496" y="237" as="targetPoint"/>
                    </mxGeometry>
                </mxCell>
                <mxCell id="34" value="" style="endArrow=none;html=1;strokeWidth=2;fontSize=12;entryX=1;entryY=0.5;entryDx=0;entryDy=0;" edge="1" parent="1">
                    <mxGeometry width="50" height="50" relative="1" as="geometry">
                        <mxPoint x="542" y="270" as="sourcePoint"/>
                        <mxPoint x="542" y="237" as="targetPoint"/>
                    </mxGeometry>
                </mxCell>
                <mxCell id="35" value="" style="endArrow=none;html=1;strokeWidth=2;fontSize=12;entryX=1;entryY=0.5;entryDx=0;entryDy=0;" edge="1" parent="1">
                    <mxGeometry width="50" height="50" relative="1" as="geometry">
                        <mxPoint x="593" y="270" as="sourcePoint"/>
                        <mxPoint x="593" y="237" as="targetPoint"/>
                    </mxGeometry>
                </mxCell>
                <mxCell id="36" value="" style="endArrow=none;html=1;strokeWidth=2;fontSize=12;entryX=1;entryY=0.5;entryDx=0;entryDy=0;" edge="1" parent="1">
                    <mxGeometry width="50" height="50" relative="1" as="geometry">
                        <mxPoint x="672" y="270" as="sourcePoint"/>
                        <mxPoint x="672" y="237" as="targetPoint"/>
                    </mxGeometry>
                </mxCell>
                <mxCell id="37" value="" style="endArrow=none;html=1;strokeWidth=2;fontSize=12;entryX=1;entryY=0.5;entryDx=0;entryDy=0;" edge="1" parent="1">
                    <mxGeometry width="50" height="50" relative="1" as="geometry">
                        <mxPoint x="725" y="270" as="sourcePoint"/>
                        <mxPoint x="725" y="237" as="targetPoint"/>
                    </mxGeometry>
                </mxCell>
                <mxCell id="38" value="" style="endArrow=none;html=1;strokeWidth=2;fontSize=12;entryX=1;entryY=0.5;entryDx=0;entryDy=0;" edge="1" parent="1">
                    <mxGeometry width="50" height="50" relative="1" as="geometry">
                        <mxPoint x="776" y="270" as="sourcePoint"/>
                        <mxPoint x="776" y="237" as="targetPoint"/>
                    </mxGeometry>
                </mxCell>
                <mxCell id="39" value="" style="endArrow=none;html=1;strokeWidth=2;fontSize=12;entryX=1;entryY=0.5;entryDx=0;entryDy=0;" edge="1" parent="1">
                    <mxGeometry width="50" height="50" relative="1" as="geometry">
                        <mxPoint x="823" y="270" as="sourcePoint"/>
                        <mxPoint x="823" y="237" as="targetPoint"/>
                    </mxGeometry>
                </mxCell>
                <mxCell id="40" value="" style="endArrow=none;html=1;strokeWidth=2;fontSize=12;entryX=1;entryY=0.5;entryDx=0;entryDy=0;" edge="1" parent="1">
                    <mxGeometry width="50" height="50" relative="1" as="geometry">
                        <mxPoint x="872" y="270" as="sourcePoint"/>
                        <mxPoint x="872" y="237" as="targetPoint"/>
                    </mxGeometry>
                </mxCell>
                <mxCell id="41" value="" style="endArrow=none;html=1;strokeWidth=2;fontSize=12;entryX=1;entryY=0.5;entryDx=0;entryDy=0;" edge="1" parent="1">
                    <mxGeometry width="50" height="50" relative="1" as="geometry">
                        <mxPoint x="964" y="270" as="sourcePoint"/>
                        <mxPoint x="964" y="237" as="targetPoint"/>
                    </mxGeometry>
                </mxCell>
                <mxCell id="42" value="" style="endArrow=none;html=1;strokeWidth=2;fontSize=12;entryX=1;entryY=0.5;entryDx=0;entryDy=0;" edge="1" parent="1">
                    <mxGeometry width="50" height="50" relative="1" as="geometry">
                        <mxPoint x="1015" y="270" as="sourcePoint"/>
                        <mxPoint x="1015" y="237" as="targetPoint"/>
                    </mxGeometry>
                </mxCell>
                <mxCell id="43" value="" style="endArrow=none;html=1;strokeWidth=2;fontSize=12;entryX=1;entryY=0.5;entryDx=0;entryDy=0;" edge="1" parent="1">
                    <mxGeometry width="50" height="50" relative="1" as="geometry">
                        <mxPoint x="1061" y="270" as="sourcePoint"/>
                        <mxPoint x="1061" y="237" as="targetPoint"/>
                    </mxGeometry>
                </mxCell>
                <mxCell id="44" value="" style="endArrow=none;html=1;strokeWidth=2;fontSize=12;entryX=1;entryY=0.5;entryDx=0;entryDy=0;" edge="1" parent="1">
                    <mxGeometry width="50" height="50" relative="1" as="geometry">
                        <mxPoint x="1111" y="270" as="sourcePoint"/>
                        <mxPoint x="1111" y="237" as="targetPoint"/>
                    </mxGeometry>
                </mxCell>
                <mxCell id="45" value="" style="endArrow=none;html=1;strokeWidth=2;fontSize=12;entryX=1;entryY=0.5;entryDx=0;entryDy=0;" edge="1" parent="1">
                    <mxGeometry width="50" height="50" relative="1" as="geometry">
                        <mxPoint x="203" y="270" as="sourcePoint"/>
                        <mxPoint x="203" y="237" as="targetPoint"/>
                    </mxGeometry>
                </mxCell>
            </root>
        </mxGraphModel>
    </diagram>
</mxfile>